<?xml version="1.0" encoding="UTF-8" standalone="no"?>
<!DOCTYPE svg PUBLIC "-//W3C//DTD SVG 1.1//EN"
 "http://www.w3.org/Graphics/SVG/1.1/DTD/svg11.dtd">
<!-- Generated by graphviz version 7.1.0 (0)
 -->
<!-- Title: snakemake_dag Pages: 1 -->
<svg width="1006pt" height="332pt"
 viewBox="0.00 0.00 1005.50 332.00" xmlns="http://www.w3.org/2000/svg" xmlns:xlink="http://www.w3.org/1999/xlink">
<g id="graph0" class="graph" transform="scale(1 1) rotate(0) translate(4 328)">
<title>snakemake_dag</title>
<polygon fill="white" stroke="none" points="-4,4 -4,-328 1001.5,-328 1001.5,4 -4,4"/>
<!-- 0 -->
<g id="node1" class="node">
<title>0</title>
<path fill="none" stroke="#56d8a9" stroke-width="2" d="M593.5,-36C593.5,-36 563.5,-36 563.5,-36 557.5,-36 551.5,-30 551.5,-24 551.5,-24 551.5,-12 551.5,-12 551.5,-6 557.5,0 563.5,0 563.5,0 593.5,0 593.5,0 599.5,0 605.5,-6 605.5,-12 605.5,-12 605.5,-24 605.5,-24 605.5,-30 599.5,-36 593.5,-36"/>
<text text-anchor="middle" x="578.5" y="-15.5" font-family="sans" font-size="10.00">all</text>
</g>
<!-- 1 -->
<g id="node2" class="node">
<title>1</title>
<path fill="none" stroke="#5673d8" stroke-width="2" d="M612.5,-108C612.5,-108 544.5,-108 544.5,-108 538.5,-108 532.5,-102 532.5,-96 532.5,-96 532.5,-84 532.5,-84 532.5,-78 538.5,-72 544.5,-72 544.5,-72 612.5,-72 612.5,-72 618.5,-72 624.5,-78 624.5,-84 624.5,-84 624.5,-96 624.5,-96 624.5,-102 618.5,-108 612.5,-108"/>
<text text-anchor="middle" x="578.5" y="-87.5" font-family="sans" font-size="10.00">phyloseq_objects</text>
</g>
<!-- 1&#45;&gt;0 -->
<g id="edge3" class="edge">
<title>1&#45;&gt;0</title>
<path fill="none" stroke="grey" stroke-width="2" d="M578.5,-71.34C578.5,-64.75 578.5,-57.08 578.5,-49.67"/>
<polygon fill="grey" stroke="grey" stroke-width="2" points="582,-49.93 578.5,-39.93 575,-49.93 582,-49.93"/>
</g>
<!-- 2 -->
<g id="node3" class="node">
<title>2</title>
<path fill="none" stroke="#56d87b" stroke-width="2" d="M450,-180C450,-180 377,-180 377,-180 371,-180 365,-174 365,-168 365,-168 365,-156 365,-156 365,-150 371,-144 377,-144 377,-144 450,-144 450,-144 456,-144 462,-150 462,-156 462,-156 462,-168 462,-168 462,-174 456,-180 450,-180"/>
<text text-anchor="middle" x="413.5" y="-159.5" font-family="sans" font-size="10.00">mothur_composite</text>
</g>
<!-- 2&#45;&gt;1 -->
<g id="edge5" class="edge">
<title>2&#45;&gt;1</title>
<path fill="none" stroke="grey" stroke-width="2" d="M455.56,-143.15C476.53,-134.26 502.11,-123.41 524.51,-113.91"/>
<polygon fill="grey" stroke="grey" stroke-width="2" points="525.6,-117.24 533.44,-110.12 522.87,-110.8 525.6,-117.24"/>
</g>
<!-- 16 -->
<g id="node17" class="node">
<title>16</title>
<path fill="none" stroke="#61d856" stroke-width="2" d="M502,-108C502,-108 435,-108 435,-108 429,-108 423,-102 423,-96 423,-96 423,-84 423,-84 423,-78 429,-72 435,-72 435,-72 502,-72 502,-72 508,-72 514,-78 514,-84 514,-84 514,-96 514,-96 514,-102 508,-108 502,-108"/>
<text text-anchor="middle" x="468.5" y="-87.5" font-family="sans" font-size="10.00">plot_taxa_barplot</text>
</g>
<!-- 2&#45;&gt;16 -->
<g id="edge19" class="edge">
<title>2&#45;&gt;16</title>
<path fill="none" stroke="grey" stroke-width="2" d="M427.38,-143.34C433.2,-135.93 440.1,-127.14 446.58,-118.9"/>
<polygon fill="grey" stroke="grey" stroke-width="2" points="449.14,-121.31 452.56,-111.28 443.63,-116.98 449.14,-121.31"/>
</g>
<!-- 3 -->
<g id="node4" class="node">
<title>3</title>
<path fill="none" stroke="#568ad8" stroke-width="2" d="M141,-252C141,-252 12,-252 12,-252 6,-252 0,-246 0,-240 0,-240 0,-228 0,-228 0,-222 6,-216 12,-216 12,-216 141,-216 141,-216 147,-216 153,-222 153,-228 153,-228 153,-240 153,-240 153,-246 147,-252 141,-252"/>
<text text-anchor="middle" x="76.5" y="-231.5" font-family="sans" font-size="10.00">process_mothur_tidy_metadata</text>
</g>
<!-- 3&#45;&gt;2 -->
<g id="edge6" class="edge">
<title>3&#45;&gt;2</title>
<path fill="none" stroke="grey" stroke-width="2" d="M153.81,-216.94C213.85,-204.47 295.98,-187.41 351.69,-175.84"/>
<polygon fill="grey" stroke="grey" stroke-width="2" points="352.16,-179.32 361.24,-173.86 350.73,-172.46 352.16,-179.32"/>
</g>
<!-- 4 -->
<g id="node5" class="node">
<title>4</title>
<path fill="none" stroke="#56a2d8" stroke-width="2" d="M127,-324C127,-324 26,-324 26,-324 20,-324 14,-318 14,-312 14,-312 14,-300 14,-300 14,-294 20,-288 26,-288 26,-288 127,-288 127,-288 133,-288 139,-294 139,-300 139,-300 139,-312 139,-312 139,-318 133,-324 127,-324"/>
<text text-anchor="middle" x="76.5" y="-303.5" font-family="sans" font-size="10.00">import_mothur_metadata</text>
</g>
<!-- 4&#45;&gt;3 -->
<g id="edge9" class="edge">
<title>4&#45;&gt;3</title>
<path fill="none" stroke="grey" stroke-width="2" d="M76.5,-287.34C76.5,-280.75 76.5,-273.08 76.5,-265.67"/>
<polygon fill="grey" stroke="grey" stroke-width="2" points="80,-265.93 76.5,-255.93 73,-265.93 80,-265.93"/>
</g>
<!-- 5 -->
<g id="node6" class="node">
<title>5</title>
<path fill="none" stroke="#d8bc56" stroke-width="2" d="M306,-252C306,-252 183,-252 183,-252 177,-252 171,-246 171,-240 171,-240 171,-228 171,-228 171,-222 177,-216 183,-216 183,-216 306,-216 306,-216 312,-216 318,-222 318,-228 318,-228 318,-240 318,-240 318,-246 312,-252 306,-252"/>
<text text-anchor="middle" x="244.5" y="-231.5" font-family="sans" font-size="10.00">process_mothur_tidy_otutable</text>
</g>
<!-- 5&#45;&gt;2 -->
<g id="edge8" class="edge">
<title>5&#45;&gt;2</title>
<path fill="none" stroke="grey" stroke-width="2" d="M287.58,-215.15C309.05,-206.26 335.26,-195.41 358.2,-185.91"/>
<polygon fill="grey" stroke="grey" stroke-width="2" points="359.51,-189.15 367.41,-182.09 356.83,-182.69 359.51,-189.15"/>
</g>
<!-- 6 -->
<g id="node7" class="node">
<title>6</title>
<path fill="none" stroke="#56d8c9" stroke-width="2" d="M292,-324C292,-324 197,-324 197,-324 191,-324 185,-318 185,-312 185,-312 185,-300 185,-300 185,-294 191,-288 197,-288 197,-288 292,-288 292,-288 298,-288 304,-294 304,-300 304,-300 304,-312 304,-312 304,-318 298,-324 292,-324"/>
<text text-anchor="middle" x="244.5" y="-303.5" font-family="sans" font-size="10.00">import_mothur_otutable</text>
</g>
<!-- 6&#45;&gt;5 -->
<g id="edge10" class="edge">
<title>6&#45;&gt;5</title>
<path fill="none" stroke="grey" stroke-width="2" d="M244.5,-287.34C244.5,-280.75 244.5,-273.08 244.5,-265.67"/>
<polygon fill="grey" stroke="grey" stroke-width="2" points="248,-265.93 244.5,-255.93 241,-265.93 248,-265.93"/>
</g>
<!-- 7 -->
<g id="node8" class="node">
<title>7</title>
<path fill="none" stroke="#d85656" stroke-width="2" d="M479,-252C479,-252 348,-252 348,-252 342,-252 336,-246 336,-240 336,-240 336,-228 336,-228 336,-222 342,-216 348,-216 348,-216 479,-216 479,-216 485,-216 491,-222 491,-228 491,-228 491,-240 491,-240 491,-246 485,-252 479,-252"/>
<text text-anchor="middle" x="413.5" y="-231.5" font-family="sans" font-size="10.00">process_mothur_tidy_taxonomy</text>
</g>
<!-- 7&#45;&gt;2 -->
<g id="edge7" class="edge">
<title>7&#45;&gt;2</title>
<path fill="none" stroke="grey" stroke-width="2" d="M413.5,-215.34C413.5,-208.75 413.5,-201.08 413.5,-193.67"/>
<polygon fill="grey" stroke="grey" stroke-width="2" points="417,-193.93 413.5,-183.93 410,-193.93 417,-193.93"/>
</g>
<!-- 8 -->
<g id="node9" class="node">
<title>8</title>
<path fill="none" stroke="#d86e56" stroke-width="2" d="M465,-324C465,-324 362,-324 362,-324 356,-324 350,-318 350,-312 350,-312 350,-300 350,-300 350,-294 356,-288 362,-288 362,-288 465,-288 465,-288 471,-288 477,-294 477,-300 477,-300 477,-312 477,-312 477,-318 471,-324 465,-324"/>
<text text-anchor="middle" x="413.5" y="-303.5" font-family="sans" font-size="10.00">import_mothur_taxonomy</text>
</g>
<!-- 8&#45;&gt;7 -->
<g id="edge11" class="edge">
<title>8&#45;&gt;7</title>
<path fill="none" stroke="grey" stroke-width="2" d="M413.5,-287.34C413.5,-280.75 413.5,-273.08 413.5,-265.67"/>
<polygon fill="grey" stroke="grey" stroke-width="2" points="417,-265.93 413.5,-255.93 410,-265.93 417,-265.93"/>
</g>
<!-- 9 -->
<g id="node10" class="node">
<title>9</title>
<path fill="none" stroke="#78d856" stroke-width="2" d="M621,-180C621,-180 550,-180 550,-180 544,-180 538,-174 538,-168 538,-168 538,-156 538,-156 538,-150 544,-144 550,-144 550,-144 621,-144 621,-144 627,-144 633,-150 633,-156 633,-156 633,-168 633,-168 633,-174 627,-180 621,-180"/>
<text text-anchor="middle" x="585.5" y="-159.5" font-family="sans" font-size="10.00">qiime2_composite</text>
</g>
<!-- 9&#45;&gt;1 -->
<g id="edge4" class="edge">
<title>9&#45;&gt;1</title>
<path fill="none" stroke="grey" stroke-width="2" d="M583.73,-143.34C583.08,-136.75 582.31,-129.08 581.57,-121.67"/>
<polygon fill="grey" stroke="grey" stroke-width="2" points="585.07,-121.52 580.59,-111.91 578.1,-122.21 585.07,-121.52"/>
</g>
<!-- 9&#45;&gt;16 -->
<g id="edge18" class="edge">
<title>9&#45;&gt;16</title>
<path fill="none" stroke="grey" stroke-width="2" d="M555.67,-143.15C541.51,-134.68 524.36,-124.42 509.04,-115.25"/>
<polygon fill="grey" stroke="grey" stroke-width="2" points="511.25,-112.5 500.87,-110.37 507.65,-118.5 511.25,-112.5"/>
</g>
<!-- 10 -->
<g id="node11" class="node">
<title>10</title>
<path fill="none" stroke="#d8d356" stroke-width="2" d="M649.5,-252C649.5,-252 521.5,-252 521.5,-252 515.5,-252 509.5,-246 509.5,-240 509.5,-240 509.5,-228 509.5,-228 509.5,-222 515.5,-216 521.5,-216 521.5,-216 649.5,-216 649.5,-216 655.5,-216 661.5,-222 661.5,-228 661.5,-228 661.5,-240 661.5,-240 661.5,-246 655.5,-252 649.5,-252"/>
<text text-anchor="middle" x="585.5" y="-231.5" font-family="sans" font-size="10.00">process_qiime2_tidy_metadata</text>
</g>
<!-- 10&#45;&gt;9 -->
<g id="edge12" class="edge">
<title>10&#45;&gt;9</title>
<path fill="none" stroke="grey" stroke-width="2" d="M585.5,-215.34C585.5,-208.75 585.5,-201.08 585.5,-193.67"/>
<polygon fill="grey" stroke="grey" stroke-width="2" points="589,-193.93 585.5,-183.93 582,-193.93 589,-193.93"/>
</g>
<!-- 11 -->
<g id="node12" class="node">
<title>11</title>
<path fill="none" stroke="#afd856" stroke-width="2" d="M635,-324C635,-324 536,-324 536,-324 530,-324 524,-318 524,-312 524,-312 524,-300 524,-300 524,-294 530,-288 536,-288 536,-288 635,-288 635,-288 641,-288 647,-294 647,-300 647,-300 647,-312 647,-312 647,-318 641,-324 635,-324"/>
<text text-anchor="middle" x="585.5" y="-303.5" font-family="sans" font-size="10.00">import_qiime2_metadata</text>
</g>
<!-- 11&#45;&gt;10 -->
<g id="edge15" class="edge">
<title>11&#45;&gt;10</title>
<path fill="none" stroke="grey" stroke-width="2" d="M585.5,-287.34C585.5,-280.75 585.5,-273.08 585.5,-265.67"/>
<polygon fill="grey" stroke="grey" stroke-width="2" points="589,-265.93 585.5,-255.93 582,-265.93 589,-265.93"/>
</g>
<!-- 12 -->
<g id="node13" class="node">
<title>12</title>
<path fill="none" stroke="#d8a456" stroke-width="2" d="M813.5,-252C813.5,-252 691.5,-252 691.5,-252 685.5,-252 679.5,-246 679.5,-240 679.5,-240 679.5,-228 679.5,-228 679.5,-222 685.5,-216 691.5,-216 691.5,-216 813.5,-216 813.5,-216 819.5,-216 825.5,-222 825.5,-228 825.5,-228 825.5,-240 825.5,-240 825.5,-246 819.5,-252 813.5,-252"/>
<text text-anchor="middle" x="752.5" y="-231.5" font-family="sans" font-size="10.00">process_qiime2_tidy_features</text>
</g>
<!-- 12&#45;&gt;9 -->
<g id="edge14" class="edge">
<title>12&#45;&gt;9</title>
<path fill="none" stroke="grey" stroke-width="2" d="M709.93,-215.15C688.71,-206.26 662.81,-195.41 640.15,-185.91"/>
<polygon fill="grey" stroke="grey" stroke-width="2" points="641.65,-182.74 631.08,-182.1 638.95,-189.2 641.65,-182.74"/>
</g>
<!-- 13 -->
<g id="node14" class="node">
<title>13</title>
<path fill="none" stroke="#d88556" stroke-width="2" d="M799.5,-324C799.5,-324 705.5,-324 705.5,-324 699.5,-324 693.5,-318 693.5,-312 693.5,-312 693.5,-300 693.5,-300 693.5,-294 699.5,-288 705.5,-288 705.5,-288 799.5,-288 799.5,-288 805.5,-288 811.5,-294 811.5,-300 811.5,-300 811.5,-312 811.5,-312 811.5,-318 805.5,-324 799.5,-324"/>
<text text-anchor="middle" x="752.5" y="-303.5" font-family="sans" font-size="10.00">import_qiime2_features</text>
</g>
<!-- 13&#45;&gt;12 -->
<g id="edge16" class="edge">
<title>13&#45;&gt;12</title>
<path fill="none" stroke="grey" stroke-width="2" d="M752.5,-287.34C752.5,-280.75 752.5,-273.08 752.5,-265.67"/>
<polygon fill="grey" stroke="grey" stroke-width="2" points="756,-265.93 752.5,-255.93 749,-265.93 756,-265.93"/>
</g>
<!-- 14 -->
<g id="node15" class="node">
<title>14</title>
<path fill="none" stroke="#c6d856" stroke-width="2" d="M985.5,-252C985.5,-252 855.5,-252 855.5,-252 849.5,-252 843.5,-246 843.5,-240 843.5,-240 843.5,-228 843.5,-228 843.5,-222 849.5,-216 855.5,-216 855.5,-216 985.5,-216 985.5,-216 991.5,-216 997.5,-222 997.5,-228 997.5,-228 997.5,-240 997.5,-240 997.5,-246 991.5,-252 985.5,-252"/>
<text text-anchor="middle" x="920.5" y="-231.5" font-family="sans" font-size="10.00">process_qiime2_tidy_taxonomy</text>
</g>
<!-- 14&#45;&gt;9 -->
<g id="edge13" class="edge">
<title>14&#45;&gt;9</title>
<path fill="none" stroke="grey" stroke-width="2" d="M842.69,-217.6C839.92,-217.06 837.19,-216.53 834.5,-216 751.87,-199.84 730.53,-198.98 648.5,-180 647.76,-179.83 647.01,-179.65 646.26,-179.48"/>
<polygon fill="grey" stroke="grey" stroke-width="2" points="647.39,-176.15 636.85,-177.16 645.72,-182.95 647.39,-176.15"/>
</g>
<!-- 15 -->
<g id="node16" class="node">
<title>15</title>
<path fill="none" stroke="#56d0d8" stroke-width="2" d="M971,-324C971,-324 870,-324 870,-324 864,-324 858,-318 858,-312 858,-312 858,-300 858,-300 858,-294 864,-288 870,-288 870,-288 971,-288 971,-288 977,-288 983,-294 983,-300 983,-300 983,-312 983,-312 983,-318 977,-324 971,-324"/>
<text text-anchor="middle" x="920.5" y="-303.5" font-family="sans" font-size="10.00">import_qiime2_taxonomy</text>
</g>
<!-- 15&#45;&gt;14 -->
<g id="edge17" class="edge">
<title>15&#45;&gt;14</title>
<path fill="none" stroke="grey" stroke-width="2" d="M920.5,-287.34C920.5,-280.75 920.5,-273.08 920.5,-265.67"/>
<polygon fill="grey" stroke="grey" stroke-width="2" points="924,-265.93 920.5,-255.93 917,-265.93 924,-265.93"/>
</g>
<!-- 16&#45;&gt;0 -->
<g id="edge2" class="edge">
<title>16&#45;&gt;0</title>
<path fill="none" stroke="grey" stroke-width="2" d="M496.54,-71.15C509.6,-62.84 525.35,-52.82 539.54,-43.79"/>
<polygon fill="grey" stroke="grey" stroke-width="2" points="541.4,-46.76 547.96,-38.44 537.64,-40.85 541.4,-46.76"/>
</g>
<!-- 17 -->
<g id="node18" class="node">
<title>17</title>
<path fill="none" stroke="#97d856" stroke-width="2" d="M752.5,-108C752.5,-108 654.5,-108 654.5,-108 648.5,-108 642.5,-102 642.5,-96 642.5,-96 642.5,-84 642.5,-84 642.5,-78 648.5,-72 654.5,-72 654.5,-72 752.5,-72 752.5,-72 758.5,-72 764.5,-78 764.5,-84 764.5,-84 764.5,-96 764.5,-96 764.5,-102 758.5,-108 752.5,-108"/>
<text text-anchor="middle" x="703.5" y="-87.5" font-family="sans" font-size="10.00">deploy_to_github_pages</text>
</g>
<!-- 17&#45;&gt;0 -->
<g id="edge1" class="edge">
<title>17&#45;&gt;0</title>
<path fill="none" stroke="grey" stroke-width="2" d="M671.63,-71.15C655.14,-61.92 634.86,-50.56 617.44,-40.81"/>
<polygon fill="grey" stroke="grey" stroke-width="2" points="619.55,-37.98 609.12,-36.15 616.13,-44.09 619.55,-37.98"/>
</g>
<!-- 18 -->
<g id="node19" class="node">
<title>18</title>
<path fill="none" stroke="#56b9d8" stroke-width="2" d="M713.5,-180C713.5,-180 669.5,-180 669.5,-180 663.5,-180 657.5,-174 657.5,-168 657.5,-168 657.5,-156 657.5,-156 657.5,-150 663.5,-144 669.5,-144 669.5,-144 713.5,-144 713.5,-144 719.5,-144 725.5,-150 725.5,-156 725.5,-156 725.5,-168 725.5,-168 725.5,-174 719.5,-180 713.5,-180"/>
<text text-anchor="middle" x="691.5" y="-159.5" font-family="sans" font-size="10.00">project_tree</text>
</g>
<!-- 18&#45;&gt;17 -->
<g id="edge21" class="edge">
<title>18&#45;&gt;17</title>
<path fill="none" stroke="grey" stroke-width="2" d="M694.53,-143.34C695.66,-136.75 696.97,-129.08 698.24,-121.67"/>
<polygon fill="grey" stroke="grey" stroke-width="2" points="701.68,-122.33 699.92,-111.89 694.78,-121.15 701.68,-122.33"/>
</g>
<!-- 19 -->
<g id="node20" class="node">
<title>19</title>
<path fill="none" stroke="#56d863" stroke-width="2" d="M853,-180C853,-180 756,-180 756,-180 750,-180 744,-174 744,-168 744,-168 744,-156 744,-156 744,-150 750,-144 756,-144 756,-144 853,-144 853,-144 859,-144 865,-150 865,-156 865,-156 865,-168 865,-168 865,-174 859,-180 853,-180"/>
<text text-anchor="middle" x="804.5" y="-159.5" font-family="sans" font-size="10.00">snakemake_html_report</text>
</g>
<!-- 19&#45;&gt;17 -->
<g id="edge20" class="edge">
<title>19&#45;&gt;17</title>
<path fill="none" stroke="grey" stroke-width="2" d="M778.75,-143.15C766.88,-134.93 752.58,-125.02 739.66,-116.06"/>
<polygon fill="grey" stroke="grey" stroke-width="2" points="741.9,-113.36 731.69,-110.54 737.91,-119.11 741.9,-113.36"/>
</g>
</g>
</svg>
