<?xml version="1.0" encoding="UTF-8" standalone="no"?>
<!DOCTYPE svg PUBLIC "-//W3C//DTD SVG 1.1//EN"
 "http://www.w3.org/Graphics/SVG/1.1/DTD/svg11.dtd">
<!-- Generated by graphviz version 6.0.1 (0)
 -->
<!-- Title: snakemake_dag Pages: 1 -->
<svg width="1006pt" height="332pt"
 viewBox="0.00 0.00 1005.50 332.00" xmlns="http://www.w3.org/2000/svg" xmlns:xlink="http://www.w3.org/1999/xlink">
<g id="graph0" class="graph" transform="scale(1 1) rotate(0) translate(4 328)">
<title>snakemake_dag</title>
<polygon fill="white" stroke="none" points="-4,4 -4,-328 1001.5,-328 1001.5,4 -4,4"/>
<!-- 0 -->
<g id="node1" class="node">
<title>0</title>
<path fill="none" stroke="#56b9d8" stroke-width="2" d="M618.5,-36C618.5,-36 588.5,-36 588.5,-36 582.5,-36 576.5,-30 576.5,-24 576.5,-24 576.5,-12 576.5,-12 576.5,-6 582.5,0 588.5,0 588.5,0 618.5,0 618.5,0 624.5,0 630.5,-6 630.5,-12 630.5,-12 630.5,-24 630.5,-24 630.5,-30 624.5,-36 618.5,-36"/>
<text text-anchor="middle" x="603.5" y="-15.5" font-family="sans" font-size="10.00">all</text>
</g>
<!-- 1 -->
<g id="node2" class="node">
<title>1</title>
<path fill="none" stroke="#56d863" stroke-width="2" d="M465.5,-108C465.5,-108 397.5,-108 397.5,-108 391.5,-108 385.5,-102 385.5,-96 385.5,-96 385.5,-84 385.5,-84 385.5,-78 391.5,-72 397.5,-72 397.5,-72 465.5,-72 465.5,-72 471.5,-72 477.5,-78 477.5,-84 477.5,-84 477.5,-96 477.5,-96 477.5,-102 471.5,-108 465.5,-108"/>
<text text-anchor="middle" x="431.5" y="-87.5" font-family="sans" font-size="10.00">phyloseq_objects</text>
</g>
<!-- 1&#45;&gt;0 -->
<g id="edge2" class="edge">
<title>1&#45;&gt;0</title>
<path fill="none" stroke="grey" stroke-width="2" d="M473.58,-71.88C502.1,-60.27 539.43,-45.08 566.75,-33.95"/>
<polygon fill="grey" stroke="grey" stroke-width="2" points="568.39,-37.07 576.33,-30.06 565.75,-30.58 568.39,-37.07"/>
</g>
<!-- 2 -->
<g id="node3" class="node">
<title>2</title>
<path fill="none" stroke="#5673d8" stroke-width="2" d="M450,-180C450,-180 377,-180 377,-180 371,-180 365,-174 365,-168 365,-168 365,-156 365,-156 365,-150 371,-144 377,-144 377,-144 450,-144 450,-144 456,-144 462,-150 462,-156 462,-156 462,-168 462,-168 462,-174 456,-180 450,-180"/>
<text text-anchor="middle" x="413.5" y="-159.5" font-family="sans" font-size="10.00">mothur_composite</text>
</g>
<!-- 2&#45;&gt;1 -->
<g id="edge6" class="edge">
<title>2&#45;&gt;1</title>
<path fill="none" stroke="grey" stroke-width="2" d="M417.95,-143.7C419.95,-135.9 422.37,-126.51 424.6,-117.83"/>
<polygon fill="grey" stroke="grey" stroke-width="2" points="428,-118.66 427.1,-108.1 421.22,-116.92 428,-118.66"/>
</g>
<!-- 16 -->
<g id="node17" class="node">
<title>16</title>
<path fill="none" stroke="#56d8a9" stroke-width="2" d="M575,-108C575,-108 508,-108 508,-108 502,-108 496,-102 496,-96 496,-96 496,-84 496,-84 496,-78 502,-72 508,-72 508,-72 575,-72 575,-72 581,-72 587,-78 587,-84 587,-84 587,-96 587,-96 587,-102 581,-108 575,-108"/>
<text text-anchor="middle" x="541.5" y="-87.5" font-family="sans" font-size="10.00">plot_taxa_barplot</text>
</g>
<!-- 2&#45;&gt;16 -->
<g id="edge20" class="edge">
<title>2&#45;&gt;16</title>
<path fill="none" stroke="grey" stroke-width="2" d="M444.81,-143.88C461.7,-134.64 482.75,-123.13 500.88,-113.21"/>
<polygon fill="grey" stroke="grey" stroke-width="2" points="502.97,-116.06 510.07,-108.19 499.61,-109.92 502.97,-116.06"/>
</g>
<!-- 3 -->
<g id="node4" class="node">
<title>3</title>
<path fill="none" stroke="#d8bc56" stroke-width="2" d="M141,-252C141,-252 12,-252 12,-252 6,-252 0,-246 0,-240 0,-240 0,-228 0,-228 0,-222 6,-216 12,-216 12,-216 141,-216 141,-216 147,-216 153,-222 153,-228 153,-228 153,-240 153,-240 153,-246 147,-252 141,-252"/>
<text text-anchor="middle" x="76.5" y="-231.5" font-family="sans" font-size="10.00">process_mothur_tidy_metadata</text>
</g>
<!-- 3&#45;&gt;2 -->
<g id="edge7" class="edge">
<title>3&#45;&gt;2</title>
<path fill="none" stroke="grey" stroke-width="2" d="M153.39,-217.03C214.47,-204.34 298.63,-186.86 354.48,-175.26"/>
<polygon fill="grey" stroke="grey" stroke-width="2" points="355.49,-178.62 364.57,-173.16 354.07,-171.77 355.49,-178.62"/>
</g>
<!-- 4 -->
<g id="node5" class="node">
<title>4</title>
<path fill="none" stroke="#56a2d8" stroke-width="2" d="M127,-324C127,-324 26,-324 26,-324 20,-324 14,-318 14,-312 14,-312 14,-300 14,-300 14,-294 20,-288 26,-288 26,-288 127,-288 127,-288 133,-288 139,-294 139,-300 139,-300 139,-312 139,-312 139,-318 133,-324 127,-324"/>
<text text-anchor="middle" x="76.5" y="-303.5" font-family="sans" font-size="10.00">import_mothur_metadata</text>
</g>
<!-- 4&#45;&gt;3 -->
<g id="edge10" class="edge">
<title>4&#45;&gt;3</title>
<path fill="none" stroke="grey" stroke-width="2" d="M76.5,-287.7C76.5,-279.98 76.5,-270.71 76.5,-262.11"/>
<polygon fill="grey" stroke="grey" stroke-width="2" points="80,-262.1 76.5,-252.1 73,-262.1 80,-262.1"/>
</g>
<!-- 5 -->
<g id="node6" class="node">
<title>5</title>
<path fill="none" stroke="#61d856" stroke-width="2" d="M306,-252C306,-252 183,-252 183,-252 177,-252 171,-246 171,-240 171,-240 171,-228 171,-228 171,-222 177,-216 183,-216 183,-216 306,-216 306,-216 312,-216 318,-222 318,-228 318,-228 318,-240 318,-240 318,-246 312,-252 306,-252"/>
<text text-anchor="middle" x="244.5" y="-231.5" font-family="sans" font-size="10.00">process_mothur_tidy_otutable</text>
</g>
<!-- 5&#45;&gt;2 -->
<g id="edge9" class="edge">
<title>5&#45;&gt;2</title>
<path fill="none" stroke="grey" stroke-width="2" d="M285.84,-215.88C309.05,-206.26 338.19,-194.19 362.77,-184.01"/>
<polygon fill="grey" stroke="grey" stroke-width="2" points="364.39,-187.13 372.29,-180.07 361.71,-180.66 364.39,-187.13"/>
</g>
<!-- 6 -->
<g id="node7" class="node">
<title>6</title>
<path fill="none" stroke="#56d8c9" stroke-width="2" d="M292,-324C292,-324 197,-324 197,-324 191,-324 185,-318 185,-312 185,-312 185,-300 185,-300 185,-294 191,-288 197,-288 197,-288 292,-288 292,-288 298,-288 304,-294 304,-300 304,-300 304,-312 304,-312 304,-318 298,-324 292,-324"/>
<text text-anchor="middle" x="244.5" y="-303.5" font-family="sans" font-size="10.00">import_mothur_otutable</text>
</g>
<!-- 6&#45;&gt;5 -->
<g id="edge11" class="edge">
<title>6&#45;&gt;5</title>
<path fill="none" stroke="grey" stroke-width="2" d="M244.5,-287.7C244.5,-279.98 244.5,-270.71 244.5,-262.11"/>
<polygon fill="grey" stroke="grey" stroke-width="2" points="248,-262.1 244.5,-252.1 241,-262.1 248,-262.1"/>
</g>
<!-- 7 -->
<g id="node8" class="node">
<title>7</title>
<path fill="none" stroke="#d85656" stroke-width="2" d="M479,-252C479,-252 348,-252 348,-252 342,-252 336,-246 336,-240 336,-240 336,-228 336,-228 336,-222 342,-216 348,-216 348,-216 479,-216 479,-216 485,-216 491,-222 491,-228 491,-228 491,-240 491,-240 491,-246 485,-252 479,-252"/>
<text text-anchor="middle" x="413.5" y="-231.5" font-family="sans" font-size="10.00">process_mothur_tidy_taxonomy</text>
</g>
<!-- 7&#45;&gt;2 -->
<g id="edge8" class="edge">
<title>7&#45;&gt;2</title>
<path fill="none" stroke="grey" stroke-width="2" d="M413.5,-215.7C413.5,-207.98 413.5,-198.71 413.5,-190.11"/>
<polygon fill="grey" stroke="grey" stroke-width="2" points="417,-190.1 413.5,-180.1 410,-190.1 417,-190.1"/>
</g>
<!-- 8 -->
<g id="node9" class="node">
<title>8</title>
<path fill="none" stroke="#c6d856" stroke-width="2" d="M465,-324C465,-324 362,-324 362,-324 356,-324 350,-318 350,-312 350,-312 350,-300 350,-300 350,-294 356,-288 362,-288 362,-288 465,-288 465,-288 471,-288 477,-294 477,-300 477,-300 477,-312 477,-312 477,-318 471,-324 465,-324"/>
<text text-anchor="middle" x="413.5" y="-303.5" font-family="sans" font-size="10.00">import_mothur_taxonomy</text>
</g>
<!-- 8&#45;&gt;7 -->
<g id="edge12" class="edge">
<title>8&#45;&gt;7</title>
<path fill="none" stroke="grey" stroke-width="2" d="M413.5,-287.7C413.5,-279.98 413.5,-270.71 413.5,-262.11"/>
<polygon fill="grey" stroke="grey" stroke-width="2" points="417,-262.1 413.5,-252.1 410,-262.1 417,-262.1"/>
</g>
<!-- 9 -->
<g id="node10" class="node">
<title>9</title>
<path fill="none" stroke="#97d856" stroke-width="2" d="M621,-180C621,-180 550,-180 550,-180 544,-180 538,-174 538,-168 538,-168 538,-156 538,-156 538,-150 544,-144 550,-144 550,-144 621,-144 621,-144 627,-144 633,-150 633,-156 633,-156 633,-168 633,-168 633,-174 627,-180 621,-180"/>
<text text-anchor="middle" x="585.5" y="-159.5" font-family="sans" font-size="10.00">qiime2_composite</text>
</g>
<!-- 9&#45;&gt;1 -->
<g id="edge5" class="edge">
<title>9&#45;&gt;1</title>
<path fill="none" stroke="grey" stroke-width="2" d="M547.83,-143.88C526.87,-134.35 500.6,-122.41 478.32,-112.28"/>
<polygon fill="grey" stroke="grey" stroke-width="2" points="479.6,-109.02 469.05,-108.07 476.71,-115.39 479.6,-109.02"/>
</g>
<!-- 9&#45;&gt;16 -->
<g id="edge19" class="edge">
<title>9&#45;&gt;16</title>
<path fill="none" stroke="grey" stroke-width="2" d="M574.62,-143.7C569.51,-135.56 563.3,-125.69 557.66,-116.7"/>
<polygon fill="grey" stroke="grey" stroke-width="2" points="560.54,-114.71 552.25,-108.1 554.61,-118.43 560.54,-114.71"/>
</g>
<!-- 10 -->
<g id="node11" class="node">
<title>10</title>
<path fill="none" stroke="#d8a456" stroke-width="2" d="M649.5,-252C649.5,-252 521.5,-252 521.5,-252 515.5,-252 509.5,-246 509.5,-240 509.5,-240 509.5,-228 509.5,-228 509.5,-222 515.5,-216 521.5,-216 521.5,-216 649.5,-216 649.5,-216 655.5,-216 661.5,-222 661.5,-228 661.5,-228 661.5,-240 661.5,-240 661.5,-246 655.5,-252 649.5,-252"/>
<text text-anchor="middle" x="585.5" y="-231.5" font-family="sans" font-size="10.00">process_qiime2_tidy_metadata</text>
</g>
<!-- 10&#45;&gt;9 -->
<g id="edge14" class="edge">
<title>10&#45;&gt;9</title>
<path fill="none" stroke="grey" stroke-width="2" d="M585.5,-215.7C585.5,-207.98 585.5,-198.71 585.5,-190.11"/>
<polygon fill="grey" stroke="grey" stroke-width="2" points="589,-190.1 585.5,-180.1 582,-190.1 589,-190.1"/>
</g>
<!-- 11 -->
<g id="node12" class="node">
<title>11</title>
<path fill="none" stroke="#56d892" stroke-width="2" d="M635,-324C635,-324 536,-324 536,-324 530,-324 524,-318 524,-312 524,-312 524,-300 524,-300 524,-294 530,-288 536,-288 536,-288 635,-288 635,-288 641,-288 647,-294 647,-300 647,-300 647,-312 647,-312 647,-318 641,-324 635,-324"/>
<text text-anchor="middle" x="585.5" y="-303.5" font-family="sans" font-size="10.00">import_qiime2_metadata</text>
</g>
<!-- 11&#45;&gt;10 -->
<g id="edge16" class="edge">
<title>11&#45;&gt;10</title>
<path fill="none" stroke="grey" stroke-width="2" d="M585.5,-287.7C585.5,-279.98 585.5,-270.71 585.5,-262.11"/>
<polygon fill="grey" stroke="grey" stroke-width="2" points="589,-262.1 585.5,-252.1 582,-262.1 589,-262.1"/>
</g>
<!-- 12 -->
<g id="node13" class="node">
<title>12</title>
<path fill="none" stroke="#afd856" stroke-width="2" d="M813.5,-252C813.5,-252 691.5,-252 691.5,-252 685.5,-252 679.5,-246 679.5,-240 679.5,-240 679.5,-228 679.5,-228 679.5,-222 685.5,-216 691.5,-216 691.5,-216 813.5,-216 813.5,-216 819.5,-216 825.5,-222 825.5,-228 825.5,-228 825.5,-240 825.5,-240 825.5,-246 819.5,-252 813.5,-252"/>
<text text-anchor="middle" x="752.5" y="-231.5" font-family="sans" font-size="10.00">process_qiime2_tidy_features</text>
</g>
<!-- 12&#45;&gt;9 -->
<g id="edge15" class="edge">
<title>12&#45;&gt;9</title>
<path fill="none" stroke="grey" stroke-width="2" d="M711.65,-215.88C688.72,-206.26 659.92,-194.19 635.63,-184.01"/>
<polygon fill="grey" stroke="grey" stroke-width="2" points="636.8,-180.71 626.22,-180.07 634.09,-187.16 636.8,-180.71"/>
</g>
<!-- 13 -->
<g id="node14" class="node">
<title>13</title>
<path fill="none" stroke="#56d87b" stroke-width="2" d="M799.5,-324C799.5,-324 705.5,-324 705.5,-324 699.5,-324 693.5,-318 693.5,-312 693.5,-312 693.5,-300 693.5,-300 693.5,-294 699.5,-288 705.5,-288 705.5,-288 799.5,-288 799.5,-288 805.5,-288 811.5,-294 811.5,-300 811.5,-300 811.5,-312 811.5,-312 811.5,-318 805.5,-324 799.5,-324"/>
<text text-anchor="middle" x="752.5" y="-303.5" font-family="sans" font-size="10.00">import_qiime2_features</text>
</g>
<!-- 13&#45;&gt;12 -->
<g id="edge17" class="edge">
<title>13&#45;&gt;12</title>
<path fill="none" stroke="grey" stroke-width="2" d="M752.5,-287.7C752.5,-279.98 752.5,-270.71 752.5,-262.11"/>
<polygon fill="grey" stroke="grey" stroke-width="2" points="756,-262.1 752.5,-252.1 749,-262.1 756,-262.1"/>
</g>
<!-- 14 -->
<g id="node15" class="node">
<title>14</title>
<path fill="none" stroke="#d88556" stroke-width="2" d="M985.5,-252C985.5,-252 855.5,-252 855.5,-252 849.5,-252 843.5,-246 843.5,-240 843.5,-240 843.5,-228 843.5,-228 843.5,-222 849.5,-216 855.5,-216 855.5,-216 985.5,-216 985.5,-216 991.5,-216 997.5,-222 997.5,-228 997.5,-228 997.5,-240 997.5,-240 997.5,-246 991.5,-252 985.5,-252"/>
<text text-anchor="middle" x="920.5" y="-231.5" font-family="sans" font-size="10.00">process_qiime2_tidy_taxonomy</text>
</g>
<!-- 14&#45;&gt;9 -->
<g id="edge13" class="edge">
<title>14&#45;&gt;9</title>
<path fill="none" stroke="grey" stroke-width="2" d="M843.22,-216.85C782.28,-204.12 698.64,-186.64 643.37,-175.09"/>
<polygon fill="grey" stroke="grey" stroke-width="2" points="643.9,-171.63 633.4,-173.01 642.47,-178.48 643.9,-171.63"/>
</g>
<!-- 15 -->
<g id="node16" class="node">
<title>15</title>
<path fill="none" stroke="#d86e56" stroke-width="2" d="M971,-324C971,-324 870,-324 870,-324 864,-324 858,-318 858,-312 858,-312 858,-300 858,-300 858,-294 864,-288 870,-288 870,-288 971,-288 971,-288 977,-288 983,-294 983,-300 983,-300 983,-312 983,-312 983,-318 977,-324 971,-324"/>
<text text-anchor="middle" x="920.5" y="-303.5" font-family="sans" font-size="10.00">import_qiime2_taxonomy</text>
</g>
<!-- 15&#45;&gt;14 -->
<g id="edge18" class="edge">
<title>15&#45;&gt;14</title>
<path fill="none" stroke="grey" stroke-width="2" d="M920.5,-287.7C920.5,-279.98 920.5,-270.71 920.5,-262.11"/>
<polygon fill="grey" stroke="grey" stroke-width="2" points="924,-262.1 920.5,-252.1 917,-262.1 924,-262.1"/>
</g>
<!-- 16&#45;&gt;0 -->
<g id="edge1" class="edge">
<title>16&#45;&gt;0</title>
<path fill="none" stroke="grey" stroke-width="2" d="M556.83,-71.7C564.26,-63.3 573.32,-53.07 581.48,-43.86"/>
<polygon fill="grey" stroke="grey" stroke-width="2" points="584.34,-45.91 588.35,-36.1 579.1,-41.27 584.34,-45.91"/>
</g>
<!-- 17 -->
<g id="node18" class="node">
<title>17</title>
<path fill="none" stroke="#d8d356" stroke-width="2" d="M714,-108C714,-108 617,-108 617,-108 611,-108 605,-102 605,-96 605,-96 605,-84 605,-84 605,-78 611,-72 617,-72 617,-72 714,-72 714,-72 720,-72 726,-78 726,-84 726,-84 726,-96 726,-96 726,-102 720,-108 714,-108"/>
<text text-anchor="middle" x="665.5" y="-87.5" font-family="sans" font-size="10.00">snakemake_html_report</text>
</g>
<!-- 17&#45;&gt;0 -->
<g id="edge4" class="edge">
<title>17&#45;&gt;0</title>
<path fill="none" stroke="grey" stroke-width="2" d="M650.17,-71.7C642.74,-63.3 633.68,-53.07 625.52,-43.86"/>
<polygon fill="grey" stroke="grey" stroke-width="2" points="627.9,-41.27 618.65,-36.1 622.66,-45.91 627.9,-41.27"/>
</g>
<!-- 18 -->
<g id="node19" class="node">
<title>18</title>
<path fill="none" stroke="#56d0d8" stroke-width="2" d="M854.5,-108C854.5,-108 756.5,-108 756.5,-108 750.5,-108 744.5,-102 744.5,-96 744.5,-96 744.5,-84 744.5,-84 744.5,-78 750.5,-72 756.5,-72 756.5,-72 854.5,-72 854.5,-72 860.5,-72 866.5,-78 866.5,-84 866.5,-84 866.5,-96 866.5,-96 866.5,-102 860.5,-108 854.5,-108"/>
<text text-anchor="middle" x="805.5" y="-87.5" font-family="sans" font-size="10.00">deploy_to_github_pages</text>
</g>
<!-- 18&#45;&gt;0 -->
<g id="edge3" class="edge">
<title>18&#45;&gt;0</title>
<path fill="none" stroke="grey" stroke-width="2" d="M756.34,-71.97C720.57,-59.57 672.9,-43.05 640.36,-31.77"/>
<polygon fill="grey" stroke="grey" stroke-width="2" points="641.38,-28.42 630.78,-28.45 639.09,-35.04 641.38,-28.42"/>
</g>
<!-- 19 -->
<g id="node20" class="node">
<title>19</title>
<path fill="none" stroke="#78d856" stroke-width="2" d="M759.5,-180C759.5,-180 689.5,-180 689.5,-180 683.5,-180 677.5,-174 677.5,-168 677.5,-168 677.5,-156 677.5,-156 677.5,-150 683.5,-144 689.5,-144 689.5,-144 759.5,-144 759.5,-144 765.5,-144 771.5,-150 771.5,-156 771.5,-156 771.5,-168 771.5,-168 771.5,-174 765.5,-180 759.5,-180"/>
<text text-anchor="middle" x="724.5" y="-159.5" font-family="sans" font-size="10.00">get_dot_rulegraph</text>
</g>
<!-- 19&#45;&gt;18 -->
<g id="edge22" class="edge">
<title>19&#45;&gt;18</title>
<path fill="none" stroke="grey" stroke-width="2" d="M744.52,-143.7C754.63,-134.97 767.04,-124.24 778.02,-114.75"/>
<polygon fill="grey" stroke="grey" stroke-width="2" points="780.43,-117.29 785.71,-108.1 775.85,-111.99 780.43,-117.29"/>
</g>
<!-- 20 -->
<g id="node21" class="node">
<title>20</title>
<path fill="none" stroke="#568ad8" stroke-width="2" d="M845.5,-180C845.5,-180 801.5,-180 801.5,-180 795.5,-180 789.5,-174 789.5,-168 789.5,-168 789.5,-156 789.5,-156 789.5,-150 795.5,-144 801.5,-144 801.5,-144 845.5,-144 845.5,-144 851.5,-144 857.5,-150 857.5,-156 857.5,-156 857.5,-168 857.5,-168 857.5,-174 851.5,-180 845.5,-180"/>
<text text-anchor="middle" x="823.5" y="-159.5" font-family="sans" font-size="10.00">project_tree</text>
</g>
<!-- 20&#45;&gt;18 -->
<g id="edge21" class="edge">
<title>20&#45;&gt;18</title>
<path fill="none" stroke="grey" stroke-width="2" d="M819.05,-143.7C817.05,-135.9 814.63,-126.51 812.4,-117.83"/>
<polygon fill="grey" stroke="grey" stroke-width="2" points="815.78,-116.92 809.9,-108.1 809,-118.66 815.78,-116.92"/>
</g>
</g>
</svg>
