<?xml version="1.0" encoding="UTF-8" standalone="no"?>
<!DOCTYPE svg PUBLIC "-//W3C//DTD SVG 1.1//EN"
 "http://www.w3.org/Graphics/SVG/1.1/DTD/svg11.dtd">
<!-- Generated by graphviz version 6.0.1 (0)
 -->
<!-- Title: snakemake_dag Pages: 1 -->
<svg width="521pt" height="332pt"
 viewBox="0.00 0.00 521.00 332.00" xmlns="http://www.w3.org/2000/svg" xmlns:xlink="http://www.w3.org/1999/xlink">
<g id="graph0" class="graph" transform="scale(1 1) rotate(0) translate(4 328)">
<title>snakemake_dag</title>
<polygon fill="white" stroke="none" points="-4,4 -4,-328 517,-328 517,4 -4,4"/>
<!-- 0 -->
<g id="node1" class="node">
<title>0</title>
<path fill="none" stroke="#d8cb56" stroke-width="2" d="M220,-36C220,-36 190,-36 190,-36 184,-36 178,-30 178,-24 178,-24 178,-12 178,-12 178,-6 184,0 190,0 190,0 220,0 220,0 226,0 232,-6 232,-12 232,-12 232,-24 232,-24 232,-30 226,-36 220,-36"/>
<text text-anchor="middle" x="205" y="-15.5" font-family="sans" font-size="10.00">all</text>
</g>
<!-- 1 -->
<g id="node2" class="node">
<title>1</title>
<path fill="none" stroke="#56d8b9" stroke-width="2" d="M192,-108C192,-108 94,-108 94,-108 88,-108 82,-102 82,-96 82,-96 82,-84 82,-84 82,-78 88,-72 94,-72 94,-72 192,-72 192,-72 198,-72 204,-78 204,-84 204,-84 204,-96 204,-96 204,-102 198,-108 192,-108"/>
<text text-anchor="middle" x="143" y="-87.5" font-family="sans" font-size="10.00">deploy_to_github_pages</text>
</g>
<!-- 1&#45;&gt;0 -->
<g id="edge2" class="edge">
<title>1&#45;&gt;0</title>
<path fill="none" stroke="grey" stroke-width="2" d="M158.33,-71.7C165.76,-63.3 174.82,-53.07 182.98,-43.86"/>
<polygon fill="grey" stroke="grey" stroke-width="2" points="185.84,-45.91 189.85,-36.1 180.6,-41.27 185.84,-45.91"/>
</g>
<!-- 2 -->
<g id="node3" class="node">
<title>2</title>
<path fill="none" stroke="#68d856" stroke-width="2" d="M82,-180C82,-180 12,-180 12,-180 6,-180 0,-174 0,-168 0,-168 0,-156 0,-156 0,-150 6,-144 12,-144 12,-144 82,-144 82,-144 88,-144 94,-150 94,-156 94,-156 94,-168 94,-168 94,-174 88,-180 82,-180"/>
<text text-anchor="middle" x="47" y="-159.5" font-family="sans" font-size="10.00">get_dot_rulegraph</text>
</g>
<!-- 2&#45;&gt;1 -->
<g id="edge3" class="edge">
<title>2&#45;&gt;1</title>
<path fill="none" stroke="grey" stroke-width="2" d="M70.73,-143.7C82.94,-134.8 97.99,-123.82 111.18,-114.2"/>
<polygon fill="grey" stroke="grey" stroke-width="2" points="113.52,-116.82 119.54,-108.1 109.4,-111.17 113.52,-116.82"/>
</g>
<!-- 3 -->
<g id="node4" class="node">
<title>3</title>
<path fill="none" stroke="#56d892" stroke-width="2" d="M168,-180C168,-180 124,-180 124,-180 118,-180 112,-174 112,-168 112,-168 112,-156 112,-156 112,-150 118,-144 124,-144 124,-144 168,-144 168,-144 174,-144 180,-150 180,-156 180,-156 180,-168 180,-168 180,-174 174,-180 168,-180"/>
<text text-anchor="middle" x="146" y="-159.5" font-family="sans" font-size="10.00">project_tree</text>
</g>
<!-- 3&#45;&gt;1 -->
<g id="edge4" class="edge">
<title>3&#45;&gt;1</title>
<path fill="none" stroke="grey" stroke-width="2" d="M145.26,-143.7C144.93,-135.98 144.53,-126.71 144.16,-118.11"/>
<polygon fill="grey" stroke="grey" stroke-width="2" points="147.66,-117.95 143.73,-108.1 140.66,-118.25 147.66,-117.95"/>
</g>
<!-- 4 -->
<g id="node5" class="node">
<title>4</title>
<path fill="none" stroke="#56a9d8" stroke-width="2" d="M302,-108C302,-108 234,-108 234,-108 228,-108 222,-102 222,-96 222,-96 222,-84 222,-84 222,-78 228,-72 234,-72 234,-72 302,-72 302,-72 308,-72 314,-78 314,-84 314,-84 314,-96 314,-96 314,-102 308,-108 302,-108"/>
<text text-anchor="middle" x="268" y="-87.5" font-family="sans" font-size="10.00">phyloseq_objects</text>
</g>
<!-- 4&#45;&gt;0 -->
<g id="edge1" class="edge">
<title>4&#45;&gt;0</title>
<path fill="none" stroke="grey" stroke-width="2" d="M252.43,-71.7C244.8,-63.22 235.48,-52.86 227.12,-43.58"/>
<polygon fill="grey" stroke="grey" stroke-width="2" points="229.69,-41.2 220.39,-36.1 224.48,-45.88 229.69,-41.2"/>
</g>
<!-- 5 -->
<g id="node6" class="node">
<title>5</title>
<path fill="none" stroke="#56d86b" stroke-width="2" d="M323,-180C323,-180 213,-180 213,-180 207,-180 201,-174 201,-168 201,-168 201,-156 201,-156 201,-150 207,-144 213,-144 213,-144 323,-144 323,-144 329,-144 335,-150 335,-156 335,-156 335,-168 335,-168 335,-174 329,-180 323,-180"/>
<text text-anchor="middle" x="268" y="-159.5" font-family="sans" font-size="10.00">qiime2_composite_Robject</text>
</g>
<!-- 5&#45;&gt;4 -->
<g id="edge5" class="edge">
<title>5&#45;&gt;4</title>
<path fill="none" stroke="grey" stroke-width="2" d="M268,-143.7C268,-135.98 268,-126.71 268,-118.11"/>
<polygon fill="grey" stroke="grey" stroke-width="2" points="271.5,-118.1 268,-108.1 264.5,-118.1 271.5,-118.1"/>
</g>
<!-- 6 -->
<g id="node7" class="node">
<title>6</title>
<path fill="none" stroke="#56d0d8" stroke-width="2" d="M165,-252C165,-252 37,-252 37,-252 31,-252 25,-246 25,-240 25,-240 25,-228 25,-228 25,-222 31,-216 37,-216 37,-216 165,-216 165,-216 171,-216 177,-222 177,-228 177,-228 177,-240 177,-240 177,-246 171,-252 165,-252"/>
<text text-anchor="middle" x="101" y="-231.5" font-family="sans" font-size="10.00">process_qiime2_tidy_metadata</text>
</g>
<!-- 6&#45;&gt;5 -->
<g id="edge8" class="edge">
<title>6&#45;&gt;5</title>
<path fill="none" stroke="grey" stroke-width="2" d="M141.85,-215.88C164.78,-206.26 193.58,-194.19 217.87,-184.01"/>
<polygon fill="grey" stroke="grey" stroke-width="2" points="219.41,-187.16 227.28,-180.07 216.7,-180.71 219.41,-187.16"/>
</g>
<!-- 7 -->
<g id="node8" class="node">
<title>7</title>
<path fill="none" stroke="#567bd8" stroke-width="2" d="M150.5,-324C150.5,-324 51.5,-324 51.5,-324 45.5,-324 39.5,-318 39.5,-312 39.5,-312 39.5,-300 39.5,-300 39.5,-294 45.5,-288 51.5,-288 51.5,-288 150.5,-288 150.5,-288 156.5,-288 162.5,-294 162.5,-300 162.5,-300 162.5,-312 162.5,-312 162.5,-318 156.5,-324 150.5,-324"/>
<text text-anchor="middle" x="101" y="-303.5" font-family="sans" font-size="10.00">import_qiime2_metadata</text>
</g>
<!-- 7&#45;&gt;6 -->
<g id="edge9" class="edge">
<title>7&#45;&gt;6</title>
<path fill="none" stroke="grey" stroke-width="2" d="M101,-287.7C101,-279.98 101,-270.71 101,-262.11"/>
<polygon fill="grey" stroke="grey" stroke-width="2" points="104.5,-262.1 101,-252.1 97.5,-262.1 104.5,-262.1"/>
</g>
<!-- 8 -->
<g id="node9" class="node">
<title>8</title>
<path fill="none" stroke="#b6d856" stroke-width="2" d="M329,-252C329,-252 207,-252 207,-252 201,-252 195,-246 195,-240 195,-240 195,-228 195,-228 195,-222 201,-216 207,-216 207,-216 329,-216 329,-216 335,-216 341,-222 341,-228 341,-228 341,-240 341,-240 341,-246 335,-252 329,-252"/>
<text text-anchor="middle" x="268" y="-231.5" font-family="sans" font-size="10.00">process_qiime2_tidy_features</text>
</g>
<!-- 8&#45;&gt;5 -->
<g id="edge6" class="edge">
<title>8&#45;&gt;5</title>
<path fill="none" stroke="grey" stroke-width="2" d="M268,-215.7C268,-207.98 268,-198.71 268,-190.11"/>
<polygon fill="grey" stroke="grey" stroke-width="2" points="271.5,-190.1 268,-180.1 264.5,-190.1 271.5,-190.1"/>
</g>
<!-- 9 -->
<g id="node10" class="node">
<title>9</title>
<path fill="none" stroke="#d85656" stroke-width="2" d="M315,-324C315,-324 221,-324 221,-324 215,-324 209,-318 209,-312 209,-312 209,-300 209,-300 209,-294 215,-288 221,-288 221,-288 315,-288 315,-288 321,-288 327,-294 327,-300 327,-300 327,-312 327,-312 327,-318 321,-324 315,-324"/>
<text text-anchor="middle" x="268" y="-303.5" font-family="sans" font-size="10.00">import_qiime2_features</text>
</g>
<!-- 9&#45;&gt;8 -->
<g id="edge10" class="edge">
<title>9&#45;&gt;8</title>
<path fill="none" stroke="grey" stroke-width="2" d="M268,-287.7C268,-279.98 268,-270.71 268,-262.11"/>
<polygon fill="grey" stroke="grey" stroke-width="2" points="271.5,-262.1 268,-252.1 264.5,-262.1 271.5,-262.1"/>
</g>
<!-- 10 -->
<g id="node11" class="node">
<title>10</title>
<path fill="none" stroke="#d87d56" stroke-width="2" d="M501,-252C501,-252 371,-252 371,-252 365,-252 359,-246 359,-240 359,-240 359,-228 359,-228 359,-222 365,-216 371,-216 371,-216 501,-216 501,-216 507,-216 513,-222 513,-228 513,-228 513,-240 513,-240 513,-246 507,-252 501,-252"/>
<text text-anchor="middle" x="436" y="-231.5" font-family="sans" font-size="10.00">process_qiime2_tidy_taxonomy</text>
</g>
<!-- 10&#45;&gt;5 -->
<g id="edge7" class="edge">
<title>10&#45;&gt;5</title>
<path fill="none" stroke="grey" stroke-width="2" d="M394.9,-215.88C371.83,-206.26 342.86,-194.19 318.43,-184.01"/>
<polygon fill="grey" stroke="grey" stroke-width="2" points="319.54,-180.68 308.96,-180.07 316.85,-187.15 319.54,-180.68"/>
</g>
<!-- 11 -->
<g id="node12" class="node">
<title>11</title>
<path fill="none" stroke="#d8a456" stroke-width="2" d="M486.5,-324C486.5,-324 385.5,-324 385.5,-324 379.5,-324 373.5,-318 373.5,-312 373.5,-312 373.5,-300 373.5,-300 373.5,-294 379.5,-288 385.5,-288 385.5,-288 486.5,-288 486.5,-288 492.5,-288 498.5,-294 498.5,-300 498.5,-300 498.5,-312 498.5,-312 498.5,-318 492.5,-324 486.5,-324"/>
<text text-anchor="middle" x="436" y="-303.5" font-family="sans" font-size="10.00">import_qiime2_taxonomy</text>
</g>
<!-- 11&#45;&gt;10 -->
<g id="edge11" class="edge">
<title>11&#45;&gt;10</title>
<path fill="none" stroke="grey" stroke-width="2" d="M436,-287.7C436,-279.98 436,-270.71 436,-262.11"/>
<polygon fill="grey" stroke="grey" stroke-width="2" points="439.5,-262.1 436,-252.1 432.5,-262.1 439.5,-262.1"/>
</g>
</g>
</svg>
