<?xml version="1.0" encoding="UTF-8" standalone="no"?>
<!DOCTYPE svg PUBLIC "-//W3C//DTD SVG 1.1//EN"
 "http://www.w3.org/Graphics/SVG/1.1/DTD/svg11.dtd">
<!-- Generated by graphviz version 7.1.0 (0)
 -->
<!-- Title: snakemake_dag Pages: 1 -->
<svg width="452pt" height="188pt"
 viewBox="0.00 0.00 452.00 188.00" xmlns="http://www.w3.org/2000/svg" xmlns:xlink="http://www.w3.org/1999/xlink">
<g id="graph0" class="graph" transform="scale(1 1) rotate(0) translate(4 184)">
<title>snakemake_dag</title>
<polygon fill="white" stroke="none" points="-4,4 -4,-184 448,-184 448,4 -4,4"/>
<!-- 0 -->
<g id="node1" class="node">
<title>0</title>
<path fill="none" stroke="#56d8a9" stroke-width="2" d="M197.5,-36C197.5,-36 167.5,-36 167.5,-36 161.5,-36 155.5,-30 155.5,-24 155.5,-24 155.5,-12 155.5,-12 155.5,-6 161.5,0 167.5,0 167.5,0 197.5,0 197.5,0 203.5,0 209.5,-6 209.5,-12 209.5,-12 209.5,-24 209.5,-24 209.5,-30 203.5,-36 197.5,-36"/>
<text text-anchor="middle" x="182.5" y="-15.5" font-family="sans" font-size="10.00">all</text>
</g>
<!-- 1 -->
<g id="node2" class="node">
<title>1</title>
<path fill="none" stroke="#d85656" stroke-width="2" d="M179,-108C179,-108 12,-108 12,-108 6,-108 0,-102 0,-96 0,-96 0,-84 0,-84 0,-78 6,-72 12,-72 12,-72 179,-72 179,-72 185,-72 191,-78 191,-84 191,-84 191,-96 191,-96 191,-102 185,-108 179,-108"/>
<text text-anchor="middle" x="95.5" y="-87.5" font-family="sans" font-size="10.00">R_merge_features_taxonomy_metadata</text>
</g>
<!-- 1&#45;&gt;0 -->
<g id="edge2" class="edge">
<title>1&#45;&gt;0</title>
<path fill="none" stroke="grey" stroke-width="2" d="M117.45,-71.34C127.37,-63.36 139.29,-53.77 150.2,-44.99"/>
<polygon fill="grey" stroke="grey" stroke-width="2" points="152.3,-47.8 157.89,-38.8 147.91,-42.34 152.3,-47.8"/>
</g>
<!-- 2 -->
<g id="node3" class="node">
<title>2</title>
<path fill="none" stroke="#59d856" stroke-width="2" d="M319.5,-108C319.5,-108 221.5,-108 221.5,-108 215.5,-108 209.5,-102 209.5,-96 209.5,-96 209.5,-84 209.5,-84 209.5,-78 215.5,-72 221.5,-72 221.5,-72 319.5,-72 319.5,-72 325.5,-72 331.5,-78 331.5,-84 331.5,-84 331.5,-96 331.5,-96 331.5,-102 325.5,-108 319.5,-108"/>
<text text-anchor="middle" x="270.5" y="-87.5" font-family="sans" font-size="10.00">deploy_to_github_pages</text>
</g>
<!-- 2&#45;&gt;0 -->
<g id="edge1" class="edge">
<title>2&#45;&gt;0</title>
<path fill="none" stroke="grey" stroke-width="2" d="M248.29,-71.34C238.26,-63.36 226.21,-53.77 215.17,-44.99"/>
<polygon fill="grey" stroke="grey" stroke-width="2" points="217.38,-42.27 207.37,-38.79 213.02,-47.75 217.38,-42.27"/>
</g>
<!-- 3 -->
<g id="node4" class="node">
<title>3</title>
<path fill="none" stroke="#d8ac56" stroke-width="2" d="M206,-180C206,-180 155,-180 155,-180 149,-180 143,-174 143,-168 143,-168 143,-156 143,-156 143,-150 149,-144 155,-144 155,-144 206,-144 206,-144 212,-144 218,-150 218,-156 218,-156 218,-168 218,-168 218,-174 212,-180 206,-180"/>
<text text-anchor="middle" x="180.5" y="-159.5" font-family="sans" font-size="10.00">dot_rulegraph</text>
</g>
<!-- 3&#45;&gt;2 -->
<g id="edge3" class="edge">
<title>3&#45;&gt;2</title>
<path fill="none" stroke="grey" stroke-width="2" d="M203.21,-143.34C213.58,-135.27 226.05,-125.57 237.43,-116.72"/>
<polygon fill="grey" stroke="grey" stroke-width="2" points="239.35,-119.66 245.09,-110.76 235.05,-114.14 239.35,-119.66"/>
</g>
<!-- 4 -->
<g id="node5" class="node">
<title>4</title>
<path fill="none" stroke="#56a9d8" stroke-width="2" d="M292.5,-180C292.5,-180 248.5,-180 248.5,-180 242.5,-180 236.5,-174 236.5,-168 236.5,-168 236.5,-156 236.5,-156 236.5,-150 242.5,-144 248.5,-144 248.5,-144 292.5,-144 292.5,-144 298.5,-144 304.5,-150 304.5,-156 304.5,-156 304.5,-168 304.5,-168 304.5,-174 298.5,-180 292.5,-180"/>
<text text-anchor="middle" x="270.5" y="-159.5" font-family="sans" font-size="10.00">project_tree</text>
</g>
<!-- 4&#45;&gt;2 -->
<g id="edge5" class="edge">
<title>4&#45;&gt;2</title>
<path fill="none" stroke="grey" stroke-width="2" d="M270.5,-143.34C270.5,-136.75 270.5,-129.08 270.5,-121.67"/>
<polygon fill="grey" stroke="grey" stroke-width="2" points="274,-121.93 270.5,-111.93 267,-121.93 274,-121.93"/>
</g>
<!-- 5 -->
<g id="node6" class="node">
<title>5</title>
<path fill="none" stroke="#afd856" stroke-width="2" d="M432,-180C432,-180 335,-180 335,-180 329,-180 323,-174 323,-168 323,-168 323,-156 323,-156 323,-150 329,-144 335,-144 335,-144 432,-144 432,-144 438,-144 444,-150 444,-156 444,-156 444,-168 444,-168 444,-174 438,-180 432,-180"/>
<text text-anchor="middle" x="383.5" y="-159.5" font-family="sans" font-size="10.00">snakemake_html_report</text>
</g>
<!-- 5&#45;&gt;2 -->
<g id="edge4" class="edge">
<title>5&#45;&gt;2</title>
<path fill="none" stroke="grey" stroke-width="2" d="M354.69,-143.15C341.15,-134.76 324.78,-124.62 310.09,-115.52"/>
<polygon fill="grey" stroke="grey" stroke-width="2" points="312.17,-112.7 301.83,-110.41 308.49,-118.65 312.17,-112.7"/>
</g>
</g>
</svg>
